<?xml version="1.0" encoding="utf-8" standalone="no"?>
<!DOCTYPE svg PUBLIC "-//W3C//DTD SVG 1.1//EN"
  "http://www.w3.org/Graphics/SVG/1.1/DTD/svg11.dtd">
<!-- Created with matplotlib (http://matplotlib.org/) -->
<svg height="432pt" version="1.1" viewBox="0 0 576 432" width="576pt" xmlns="http://www.w3.org/2000/svg" xmlns:xlink="http://www.w3.org/1999/xlink">
 <defs>
  <style type="text/css">
*{stroke-linecap:butt;stroke-linejoin:round;}
  </style>
 </defs>
 <g id="figure_1">
  <g id="patch_1">
   <path d="
M0 432
L576 432
L576 0
L0 0
z
" style="fill:#ffffff;"/>
  </g>
  <g id="axes_1">
   <g id="patch_2">
    <path d="
M46.3183 387.69
L277.92 387.69
L277.92 18.4922
L46.3183 18.4922
z
" style="fill:#ffffff;"/>
   </g>
   <g id="patch_3">
    <path clip-path="url(#pe5d10dc8f9)" d="
M46.3183 387.69
L92.6387 387.69
L92.6387 371.281
L46.3183 371.281
z
" style="fill:#0000b2;fill-opacity:0.5;stroke:#000000;stroke-linejoin:miter;"/>
   </g>
   <g id="patch_4">
    <path clip-path="url(#pe5d10dc8f9)" d="
M92.6387 387.69
L138.959 387.69
L138.959 190.785
L92.6387 190.785
z
" style="fill:#0000b2;fill-opacity:0.5;stroke:#000000;stroke-linejoin:miter;"/>
   </g>
   <g id="patch_5">
    <path clip-path="url(#pe5d10dc8f9)" d="
M138.959 387.69
L185.279 387.69
L185.279 141.558
L138.959 141.558
z
" style="fill:#0000b2;fill-opacity:0.5;stroke:#000000;stroke-linejoin:miter;"/>
   </g>
   <g id="patch_6">
    <path clip-path="url(#pe5d10dc8f9)" d="
M185.279 387.69
L231.6 387.69
L231.6 313.85
L185.279 313.85
z
" style="fill:#0000b2;fill-opacity:0.5;stroke:#000000;stroke-linejoin:miter;"/>
   </g>
   <g id="patch_7">
    <path clip-path="url(#pe5d10dc8f9)" d="
M231.6 387.69
L277.92 387.69
L277.92 379.486
L231.6 379.486
z
" style="fill:#0000b2;fill-opacity:0.5;stroke:#000000;stroke-linejoin:miter;"/>
   </g>
   <g id="patch_8">
    <path clip-path="url(#pe5d10dc8f9)" d="
M46.3183 387.69
L92.6387 387.69
L92.6387 379.486
L46.3183 379.486
z
" style="fill:#ff0000;fill-opacity:0.5;stroke:#000000;stroke-linejoin:miter;"/>
   </g>
   <g id="patch_9">
    <path clip-path="url(#pe5d10dc8f9)" d="
M92.6387 387.69
L138.959 387.69
L138.959 354.872
L92.6387 354.872
z
" style="fill:#ff0000;fill-opacity:0.5;stroke:#000000;stroke-linejoin:miter;"/>
   </g>
   <g id="patch_10">
    <path clip-path="url(#pe5d10dc8f9)" d="
M138.959 387.69
L185.279 387.69
L185.279 240.011
L138.959 240.011
z
" style="fill:#ff0000;fill-opacity:0.5;stroke:#000000;stroke-linejoin:miter;"/>
   </g>
   <g id="patch_11">
    <path clip-path="url(#pe5d10dc8f9)" d="
M185.279 387.69
L231.6 387.69
L231.6 51.3098
L185.279 51.3098
z
" style="fill:#ff0000;fill-opacity:0.5;stroke:#000000;stroke-linejoin:miter;"/>
   </g>
   <g id="patch_12">
    <path clip-path="url(#pe5d10dc8f9)" d="
M231.6 387.69
L277.92 387.69
L277.92 371.281
L231.6 371.281
z
" style="fill:#ff0000;fill-opacity:0.5;stroke:#000000;stroke-linejoin:miter;"/>
   </g>
   <g id="patch_13">
    <path d="
M46.3183 18.4922
L277.92 18.4922" style="fill:none;stroke:#000000;stroke-linecap:square;stroke-linejoin:miter;"/>
   </g>
   <g id="patch_14">
    <path d="
M277.92 387.69
L277.92 18.4922" style="fill:none;stroke:#000000;stroke-linecap:square;stroke-linejoin:miter;"/>
   </g>
   <g id="patch_15">
    <path d="
M46.3183 387.69
L277.92 387.69" style="fill:none;stroke:#000000;stroke-linecap:square;stroke-linejoin:miter;"/>
   </g>
   <g id="patch_16">
    <path d="
M46.3183 387.69
L46.3183 18.4922" style="fill:none;stroke:#000000;stroke-linecap:square;stroke-linejoin:miter;"/>
   </g>
   <g id="matplotlib.axis_1">
    <g id="xtick_1">
     <g id="line2d_1">
      <defs>
       <path d="
M0 0
L0 -4" id="m93b0483c22" style="stroke:#000000;stroke-width:0.5;"/>
      </defs>
      <g>
       <use style="stroke:#000000;stroke-width:0.5;" x="46.3183479676" xlink:href="#m93b0483c22" y="387.690050713"/>
      </g>
     </g>
     <g id="line2d_2">
      <defs>
       <path d="
M0 0
L0 4" id="m741efc42ff" style="stroke:#000000;stroke-width:0.5;"/>
      </defs>
      <g>
       <use style="stroke:#000000;stroke-width:0.5;" x="46.3183479676" xlink:href="#m741efc42ff" y="18.492179437"/>
      </g>
     </g>
     <g id="text_1">
      <!-- $200$ -->
      <defs>
       <path d="
M27.5 71
C20.9062 71 14.9062 68.125 11.2031 63.2188
C6.59375 57.0469 4.29688 47.5625 4.29688 34.5
C4.29688 10.6719 12.2969 -2 27.5 -2
C42.5 -2 50.7031 10.6719 50.7031 33.9062
C50.7031 47.6562 48.5 56.8438 43.7969 63.2188
C40.0938 68.2188 34.2031 71 27.5 71
M27.5 63.1875
C37 63.1875 41.7031 53.625 41.7031 34.7031
C41.7031 14.6719 37.0938 5.3125 27.2969 5.3125
C18 5.3125 13.2969 15.0781 13.2969 34.4062
C13.2969 53.7188 18 63.1875 27.5 63.1875" id="Nimbus_Sans_L_Regular-48"/>
       <path d="
M50.5938 8.71875
L13.2969 8.71875
C14.2031 14.5312 17.4062 18.2344 26.0938 23.3438
L36.0938 28.75
C46 34.1562 51.0938 41.4531 51.0938 50.1719
C51.0938 56.0781 48.7031 61.5938 44.5 65.3906
C40.2969 69.2031 35.0938 71 28.4062 71
C19.4062 71 12.7031 67.7969 8.79688 61.7969
C6.29688 57.9844 5.20312 53.5781 5 46.3594
L13.7969 46.3594
C14.0938 51.1719 14.7031 54.0781 15.9062 56.375
C18.2031 60.6875 22.7969 63.2969 28.0938 63.2969
C36.0938 63.2969 42.0938 57.5781 42.0938 49.9688
C42.0938 44.3594 38.7969 39.5469 32.5 35.9531
L23.2969 30.75
C8.5 22.3438 4.20312 15.625 3.40625 0
L50.5938 0
z
" id="Nimbus_Sans_L_Regular-50"/>
      </defs>
      <g transform="translate(36.3478561474 400.20803503)scale(0.12 -0.12)">
       <use transform="scale(0.996264009963)" xlink:href="#Nimbus_Sans_L_Regular-50"/>
       <use transform="translate(55.3916769633 0.0)scale(0.996264009963)" xlink:href="#Nimbus_Sans_L_Regular-48"/>
       <use transform="translate(110.783353927 0.0)scale(0.996264009963)" xlink:href="#Nimbus_Sans_L_Regular-48"/>
      </g>
     </g>
    </g>
    <g id="xtick_2">
     <g id="line2d_3">
      <g>
       <use style="stroke:#000000;stroke-width:0.5;" x="84.9186131363" xlink:href="#m93b0483c22" y="387.690050713"/>
      </g>
     </g>
     <g id="line2d_4">
      <g>
       <use style="stroke:#000000;stroke-width:0.5;" x="84.9186131363" xlink:href="#m741efc42ff" y="18.492179437"/>
      </g>
     </g>
     <g id="text_2">
      <!-- $210$ -->
      <defs>
       <path d="
M25.9062 50.5938
L25.9062 0
L34.7031 0
L34.7031 71.0156
L28.9062 71.0156
C25.7969 60.1094 23.7969 58.6094 10.2031 56.9062
L10.2031 50.5938
z
" id="Nimbus_Sans_L_Regular-49"/>
      </defs>
      <g transform="translate(74.9481213161 400.20803503)scale(0.12 -0.12)">
       <use transform="scale(0.996264009963)" xlink:href="#Nimbus_Sans_L_Regular-50"/>
       <use transform="translate(55.3916769633 0.0)scale(0.996264009963)" xlink:href="#Nimbus_Sans_L_Regular-49"/>
       <use transform="translate(110.783353927 0.0)scale(0.996264009963)" xlink:href="#Nimbus_Sans_L_Regular-48"/>
      </g>
     </g>
    </g>
    <g id="xtick_3">
     <g id="line2d_5">
      <g>
       <use style="stroke:#000000;stroke-width:0.5;" x="123.518878305" xlink:href="#m93b0483c22" y="387.690050713"/>
      </g>
     </g>
     <g id="line2d_6">
      <g>
       <use style="stroke:#000000;stroke-width:0.5;" x="123.518878305" xlink:href="#m741efc42ff" y="18.492179437"/>
      </g>
     </g>
     <g id="text_3">
      <!-- $220$ -->
      <g transform="translate(113.548386485 400.20803503)scale(0.12 -0.12)">
       <use transform="scale(0.996264009963)" xlink:href="#Nimbus_Sans_L_Regular-50"/>
       <use transform="translate(55.3916769633 0.0)scale(0.996264009963)" xlink:href="#Nimbus_Sans_L_Regular-50"/>
       <use transform="translate(110.783353927 0.0)scale(0.996264009963)" xlink:href="#Nimbus_Sans_L_Regular-48"/>
      </g>
     </g>
    </g>
    <g id="xtick_4">
     <g id="line2d_7">
      <g>
       <use style="stroke:#000000;stroke-width:0.5;" x="162.119143474" xlink:href="#m93b0483c22" y="387.690050713"/>
      </g>
     </g>
     <g id="line2d_8">
      <g>
       <use style="stroke:#000000;stroke-width:0.5;" x="162.119143474" xlink:href="#m741efc42ff" y="18.492179437"/>
      </g>
     </g>
     <g id="text_4">
      <!-- $230$ -->
      <defs>
       <path d="
M22.0938 33
L23.2031 33
L26.9062 33
C36.5938 33 41.5938 28.5938 41.5938 20.0625
C41.5938 11.125 36.0938 5.8125 26.9062 5.8125
C17.2969 5.8125 12.5938 10.6406 12 21.0156
L3.20312 21.0156
C3.59375 15.2812 4.59375 11.5625 6.29688 8.34375
C9.90625 1.51562 16.9062 -2 26.5938 -2
C41.2031 -2 50.5938 6.73438 50.5938 20.2031
C50.5938 29.25 47.0938 34.2812 38.5938 37.2031
C45.2031 39.7812 48.5 44.7188 48.5 51.7344
C48.5 63.7812 40.4062 71 26.9062 71
C12.5938 71 5 63.2812 4.70312 48.3594
L13.5 48.3594
C13.5938 52.5938 14 54.9531 15.0938 57.1094
C17.0938 60.9375 21.5 63.2969 27 63.2969
C34.7969 63.2969 39.5 58.75 39.5 51.3594
C39.5 46.4219 37.7031 43.4531 33.7969 41.8906
C31.4062 40.9062 28.2969 40.5 22.0938 40.5
z
" id="Nimbus_Sans_L_Regular-51"/>
      </defs>
      <g transform="translate(152.148651654 400.20803503)scale(0.12 -0.12)">
       <use transform="scale(0.996264009963)" xlink:href="#Nimbus_Sans_L_Regular-50"/>
       <use transform="translate(55.3916769633 0.0)scale(0.996264009963)" xlink:href="#Nimbus_Sans_L_Regular-51"/>
       <use transform="translate(110.783353927 0.0)scale(0.996264009963)" xlink:href="#Nimbus_Sans_L_Regular-48"/>
      </g>
     </g>
    </g>
    <g id="xtick_5">
     <g id="line2d_9">
      <g>
       <use style="stroke:#000000;stroke-width:0.5;" x="200.719408643" xlink:href="#m93b0483c22" y="387.690050713"/>
      </g>
     </g>
     <g id="line2d_10">
      <g>
       <use style="stroke:#000000;stroke-width:0.5;" x="200.719408643" xlink:href="#m741efc42ff" y="18.492179437"/>
      </g>
     </g>
     <g id="text_5">
      <!-- $240$ -->
      <defs>
       <path d="
M32.7031 17
L32.7031 0
L41.5 0
L41.5 17
L52 17
L52 24.9062
L41.5 24.9062
L41.5 71.0156
L35 71.0156
L2.79688 26.3125
L2.79688 17
z

M32.7031 24.9062
L10.5 24.9062
L32.7031 55.9844
z
" id="Nimbus_Sans_L_Regular-52"/>
      </defs>
      <g transform="translate(190.748916822 400.20803503)scale(0.12 -0.12)">
       <use transform="scale(0.996264009963)" xlink:href="#Nimbus_Sans_L_Regular-50"/>
       <use transform="translate(55.3916769633 0.0)scale(0.996264009963)" xlink:href="#Nimbus_Sans_L_Regular-52"/>
       <use transform="translate(110.783353927 0.0)scale(0.996264009963)" xlink:href="#Nimbus_Sans_L_Regular-48"/>
      </g>
     </g>
    </g>
    <g id="xtick_6">
     <g id="line2d_11">
      <g>
       <use style="stroke:#000000;stroke-width:0.5;" x="239.319673811" xlink:href="#m93b0483c22" y="387.690050713"/>
      </g>
     </g>
     <g id="line2d_12">
      <g>
       <use style="stroke:#000000;stroke-width:0.5;" x="239.319673811" xlink:href="#m741efc42ff" y="18.492179437"/>
      </g>
     </g>
     <g id="text_6">
      <!-- $250$ -->
      <defs>
       <path d="
M47.5938 71
L11 71
L5.70312 32.5938
L13.7969 32.5938
C17.9062 37.4844 21.2969 39.1875 26.7969 39.1875
C36.2969 39.1875 42.2969 32.6875 42.2969 22.2031
C42.2969 12 36.4062 5.8125 26.7969 5.8125
C19.0938 5.8125 14.4062 9.70312 12.2969 17.7031
L3.5 17.7031
C4.70312 11.9062 5.70312 9.09375 7.79688 6.48438
C11.7969 1.09375 19 -2 27 -2
C41.2969 -2 51.2969 8.39062 51.2969 23.3906
C51.2969 37.4062 42 47 28.4062 47
C23.4062 47 19.4062 45.7031 15.2969 42.6875
L18.0938 62.2969
L47.5938 62.2969
z
" id="Nimbus_Sans_L_Regular-53"/>
      </defs>
      <g transform="translate(229.349181991 400.20803503)scale(0.12 -0.12)">
       <use transform="scale(0.996264009963)" xlink:href="#Nimbus_Sans_L_Regular-50"/>
       <use transform="translate(55.3916769633 0.0)scale(0.996264009963)" xlink:href="#Nimbus_Sans_L_Regular-53"/>
       <use transform="translate(110.783353927 0.0)scale(0.996264009963)" xlink:href="#Nimbus_Sans_L_Regular-48"/>
      </g>
     </g>
    </g>
    <g id="xtick_7">
     <g id="line2d_13">
      <g>
       <use style="stroke:#000000;stroke-width:0.5;" x="277.91993898" xlink:href="#m93b0483c22" y="387.690050713"/>
      </g>
     </g>
     <g id="line2d_14">
      <g>
       <use style="stroke:#000000;stroke-width:0.5;" x="277.91993898" xlink:href="#m741efc42ff" y="18.492179437"/>
      </g>
     </g>
     <g id="text_7">
      <!-- $260$ -->
      <defs>
       <path d="
M49.7969 52.8438
C48.0938 64.2344 40.5 71 29.7031 71
C21.9062 71 14.9062 67.2188 10.7031 60.9375
C6.29688 54.0625 4.29688 45.375 4.29688 32.5156
C4.29688 20.6406 6.09375 13.0625 10.2969 6.78125
C14.0938 1.07812 20.2969 -2 28.0938 -2
C41.5938 -2 51.2969 8.09375 51.2969 22.1094
C51.2969 35.4375 42.2969 44.8125 29.5938 44.8125
C22.5938 44.8125 17.0938 42.1094 13.2969 36.9062
C13.4062 53.8125 19 63.1875 29.0938 63.1875
C35.2969 63.1875 39.5938 59.4219 41 52.8438
z

M28.5 37
C37 37 42.2969 31.0312 42.2969 21.4062
C42.2969 12.3906 36.2969 5.8125 28.2031 5.8125
C20 5.8125 13.7969 12.7031 13.7969 21.9062
C13.7969 30.8281 19.7969 37 28.5 37" id="Nimbus_Sans_L_Regular-54"/>
      </defs>
      <g transform="translate(267.94944716 400.20803503)scale(0.12 -0.12)">
       <use transform="scale(0.996264009963)" xlink:href="#Nimbus_Sans_L_Regular-50"/>
       <use transform="translate(55.3916769633 0.0)scale(0.996264009963)" xlink:href="#Nimbus_Sans_L_Regular-54"/>
       <use transform="translate(110.783353927 0.0)scale(0.996264009963)" xlink:href="#Nimbus_Sans_L_Regular-48"/>
      </g>
     </g>
    </g>
    <g id="text_8">
     <!-- Clock frequency (MHz) -->
     <defs>
      <path d="
M44.2969 52.3125
L5.20312 52.3125
L5.20312 45
L34.4062 45
L3.09375 7.51562
L3.09375 0
L45.7031 0
L45.7031 7.3125
L13.2031 7.3125
L44.2969 44.9062
z
" id="Nimbus_Sans_L_Regular-122"/>
      <path d="
M38.7969 52.5
L24.2969 11.5312
L10.9062 52.5
L2 52.5
L19.7031 -0.328125
L16.5 -8.65625
C15.2031 -12.375 13.2969 -13.7812 9.79688 -13.7812
C8.59375 -13.7812 7.20312 -13.5781 5.40625 -13.1719
L5.40625 -20.7031
C7.09375 -21.5938 8.79688 -22 11 -22
C13.7031 -22 16.5938 -21.0938 18.7969 -19.4844
C21.4062 -17.5781 22.9062 -15.3594 24.5 -11.1406
L47.7969 52.5
z
" id="Nimbus_Sans_L_Regular-121"/>
      <path d="
M46.7969 -0.03125
L67.2969 61.1719
L67.2969 -0.03125
L76.0938 -0.03125
L76.0938 73
L63.2031 73
L42 9.39062
L20.4062 73
L7.5 73
L7.5 -0.03125
L16.2969 -0.03125
L16.2969 61.1719
L37 -0.03125
z
" id="Nimbus_Sans_L_Regular-77"/>
      <path d="
M47.0938 34.9375
C46.7031 40.0312 45.5938 43.3281 43.5938 46.2188
C40 51.1094 33.7031 54 26.4062 54
C12.2969 54 3.09375 42.8438 3.09375 25.5
C3.09375 8.65625 12.0938 -2 26.2969 -2
C38.7969 -2 46.7031 5.46875 47.7031 18.2344
L39.2969 18.2344
C37.9062 9.875 33.5938 5.70312 26.5 5.70312
C17.2969 5.70312 11.7969 13.1719 11.7969 25.5
C11.7969 38.5312 17.2031 46.2812 26.2969 46.2812
C33.2969 46.2812 37.7031 42.2031 38.7031 34.9375
z
" id="Nimbus_Sans_L_Regular-99"/>
      <path d="
M9.29688 -21.2656
C19.2969 -8.14062 25.5938 10.0938 25.5938 25.8125
C25.5938 41.6406 19.2969 59.875 9.29688 73
L3.79688 73
C12.5938 58.6719 17.5 41.8438 17.5 25.8125
C17.5 9.89062 12.5938 -7.04688 3.79688 -21.2656
z
" id="Nimbus_Sans_L_Regular-41"/>
      <path d="
M23.5938 73
C13.5938 59.875 7.29688 41.6406 7.29688 25.9062
C7.29688 10.0938 13.5938 -8.14062 23.5938 -21.2656
L29.0938 -21.2656
C20.2969 -6.9375 15.4062 9.89062 15.4062 25.9062
C15.4062 41.8438 20.2969 58.7656 29.0938 73
z
" id="Nimbus_Sans_L_Regular-40"/>
      <path d="
M7 52.4844
L7 0
L15.4062 0
L15.4062 28.9531
C15.4062 39.6719 21 46.6875 29.5938 46.6875
C36.2031 46.6875 40.4062 42.6719 40.4062 36.3594
L40.4062 0
L48.7031 0
L48.7031 39.6719
C48.7031 48.3906 42.2031 54 32.0938 54
C24.2969 54 19.2969 50.9844 14.7031 43.6875
L14.7031 52.4844
z
" id="Nimbus_Sans_L_Regular-110"/>
      <path d="
M55.0938 33
L55.0938 -0.03125
L64.4062 -0.03125
L64.4062 73
L55.0938 73
L55.0938 41.2188
L17.5938 41.2188
L17.5938 73
L8.29688 73
L8.29688 -0.03125
L17.7031 -0.03125
L17.7031 33
z
" id="Nimbus_Sans_L_Regular-72"/>
      <path d="
M15.2031 73
L6.79688 73
L6.79688 -0.03125
L15.2031 -0.03125
z
" id="Nimbus_Sans_L_Regular-108"/>
      <path d="
M66.2031 50.4531
C63.2969 66.4375 54.0938 74.2188 38.0938 74.2188
C28.2969 74.2188 20.4062 71.125 15 65.125
C8.40625 57.9531 4.79688 47.5781 4.79688 35.7969
C4.79688 23.8281 8.5 13.5625 15.4062 6.46875
C21 0.6875 28.2031 -2 37.7031 -2
C55.5 -2 65.5 7.57812 67.7031 26.8281
L58.0938 26.8281
C57.2969 21.8594 56.2969 18.4688 54.7969 15.5781
C51.7969 9.59375 45.5938 6.20312 37.7969 6.20312
C23.2969 6.20312 14.0938 17.7656 14.0938 35.9062
C14.0938 54.5469 22.9062 66 37 66
C42.9062 66 48.4062 64.2188 51.4062 61.4062
C54.0938 58.9219 55.5938 55.8281 56.7031 50.4531
z
" id="Nimbus_Sans_L_Regular-67"/>
      <path d="
M49.5 -22
L49.5 52.3281
L42.0938 52.3281
L42.0938 45.2969
C38.2031 50.7969 32.2969 53.8125 25.4062 53.8125
C11.5938 53.8125 2.59375 42.4219 2.59375 24.8906
C2.59375 7.76562 11.2031 -2.8125 25 -2.8125
C32.2969 -2.8125 37.2969 -0.21875 41.2031 5.5
L41.2031 -22
z

M26.5938 46
C35.5 46 41.2031 37.9219 41.2031 25.1875
C41.2031 13.0781 35.4062 5 26.5938 5
C17.4062 5 11.2969 13.1719 11.2969 25.4844
C11.2969 37.7188 17.4062 46 26.5938 46" id="Nimbus_Sans_L_Regular-113"/>
      <path d="
M14.0938 73
L5.79688 73
L5.79688 -0.03125
L14.0938 -0.03125
L14.0938 20.4062
L22.2031 28.4219
L39.9062 -0.03125
L50.2031 -0.03125
L28.7969 34.3281
L47 52.4531
L36.2969 52.4531
L14.0938 30.2188
z
" id="Nimbus_Sans_L_Regular-107"/>
      <path d="
M27.2031 54
C12.5 54 3.59375 43.5312 3.59375 26
C3.59375 8.45312 12.4062 -2 27.2969 -2
C42 -2 51 8.45312 51 25.5938
C51 43.6406 42.2969 54 27.2031 54
M27.2969 46.2812
C36.7031 46.2812 42.2969 38.625 42.2969 25.7031
C42.2969 13.4531 36.5 5.70312 27.2969 5.70312
C18 5.70312 12.2969 13.3594 12.2969 26
C12.2969 38.5312 18 46.2812 27.2969 46.2812" id="Nimbus_Sans_L_Regular-111"/>
      <path d="
M51.2969 24
C51.2969 31.875 50.7031 36.5938 49.2031 40.4219
C45.7969 48.875 37.7969 54 28 54
C13.4062 54 4 42.8438 4 25.7031
C4 8.54688 13.0938 -2 27.7969 -2
C39.7969 -2 48.0938 4.875 50.2031 16.375
L41.7969 16.375
C39.5 9.35938 34.7969 5.70312 28.0938 5.70312
C22.7969 5.70312 18.2969 8.14062 15.5 12.6094
C13.5 15.6562 12.7969 18.7188 12.7031 24
z

M12.9062 30.8125
C13.5938 40.1875 19.5 46.2812 27.9062 46.2812
C36.0938 46.2812 42.4062 39.7031 42.4062 31.4062
C42.4062 31.2031 42.4062 31.0156 42.2969 30.8125
z
" id="Nimbus_Sans_L_Regular-101"/>
      <path d="
M48.2031 0.515625
L48.2031 53
L39.9062 53
L39.9062 23.1094
C39.9062 12.3438 34.2969 5.3125 25.5938 5.3125
C19 5.3125 14.7969 9.32812 14.7969 15.6719
L14.7969 53
L6.5 53
L6.5 12.375
C6.5 3.625 13 -2 23.2031 -2
C30.9062 -2 35.7969 0.703125 40.7031 7.625
L40.7031 0.515625
z
" id="Nimbus_Sans_L_Regular-117"/>
      <path d="
M6.90625 52.4844
L6.90625 0
L15.2969 0
L15.2969 27.25
C15.2969 34.7656 17.2031 39.6719 21.2031 42.5781
C23.7969 44.4844 26.2969 45.0781 32.0938 45.0781
L32.0938 53.7031
C30.7031 53.8906 30 54 28.9062 54
C23.5 54 19.4062 50.7812 14.5938 42.9688
L14.5938 52.4844
z
" id="Nimbus_Sans_L_Regular-114"/>
      <path d="
M25.7969 52
L17.0938 52
L17.0938 60.25
C17.0938 63.7812 19.0938 65.5938 22.9062 65.5938
C23.5938 65.5938 23.9062 65.5938 25.7969 65.5938
L25.7969 72.5
C23.9062 72.9062 22.7969 73 21.0938 73
C13.4062 73 8.79688 68.5625 8.79688 60.9844
L8.79688 52
L1.79688 52
L1.79688 45.1875
L8.79688 45.1875
L8.79688 -0.40625
L17.0938 -0.40625
L17.0938 45.1875
L25.7969 45.1875
z
" id="Nimbus_Sans_L_Regular-102"/>
     </defs>
     <g transform="translate(101.459167213 416.493625443)scale(0.12 -0.12)">
      <use transform="scale(0.996264009963)" xlink:href="#Nimbus_Sans_L_Regular-67"/>
      <use transform="translate(71.9299848469 0.0)scale(0.996264009963)" xlink:href="#Nimbus_Sans_L_Regular-108"/>
      <use transform="translate(94.0467691956 0.0)scale(0.996264009963)" xlink:href="#Nimbus_Sans_L_Regular-111"/>
      <use transform="translate(149.438446159 0.0)scale(0.996264009963)" xlink:href="#Nimbus_Sans_L_Regular-99"/>
      <use transform="translate(197.259635498 0.0)scale(0.996264009963)" xlink:href="#Nimbus_Sans_L_Regular-107"/>
      <use transform="translate(274.768005599 0.0)scale(0.996264009963)" xlink:href="#Nimbus_Sans_L_Regular-102"/>
      <use transform="translate(302.463175202 0.0)scale(0.996264009963)" xlink:href="#Nimbus_Sans_L_Regular-114"/>
      <use transform="translate(335.638404932 0.0)scale(0.996264009963)" xlink:href="#Nimbus_Sans_L_Regular-101"/>
      <use transform="translate(391.030081895 0.0)scale(0.996264009963)" xlink:href="#Nimbus_Sans_L_Regular-113"/>
      <use transform="translate(446.421758858 0.0)scale(0.996264009963)" xlink:href="#Nimbus_Sans_L_Regular-117"/>
      <use transform="translate(501.813435822 0.0)scale(0.996264009963)" xlink:href="#Nimbus_Sans_L_Regular-101"/>
      <use transform="translate(557.205112785 0.0)scale(0.996264009963)" xlink:href="#Nimbus_Sans_L_Regular-110"/>
      <use transform="translate(612.596789748 0.0)scale(0.996264009963)" xlink:href="#Nimbus_Sans_L_Regular-99"/>
      <use transform="translate(662.409990247 0.0)scale(0.996264009963)" xlink:href="#Nimbus_Sans_L_Regular-121"/>
      <use transform="translate(739.918360348 0.0)scale(0.996264009963)" xlink:href="#Nimbus_Sans_L_Regular-40"/>
      <use transform="translate(773.093590077 0.0)scale(0.996264009963)" xlink:href="#Nimbus_Sans_L_Regular-77"/>
      <use transform="translate(856.082020305 0.0)scale(0.996264009963)" xlink:href="#Nimbus_Sans_L_Regular-72"/>
      <use transform="translate(928.012005152 0.0)scale(0.996264009963)" xlink:href="#Nimbus_Sans_L_Regular-122"/>
      <use transform="translate(977.82520565 0.0)scale(0.996264009963)" xlink:href="#Nimbus_Sans_L_Regular-41"/>
     </g>
    </g>
   </g>
   <g id="matplotlib.axis_2">
    <g id="ytick_1">
     <g id="line2d_15">
      <defs>
       <path d="
M0 0
L4 0" id="m728421d6d4" style="stroke:#000000;stroke-width:0.5;"/>
      </defs>
      <g>
       <use style="stroke:#000000;stroke-width:0.5;" x="46.3183479676" xlink:href="#m728421d6d4" y="387.690050713"/>
      </g>
     </g>
     <g id="line2d_16">
      <defs>
       <path d="
M0 0
L-4 0" id="mcb0005524f" style="stroke:#000000;stroke-width:0.5;"/>
      </defs>
      <g>
       <use style="stroke:#000000;stroke-width:0.5;" x="277.91993898" xlink:href="#mcb0005524f" y="387.690050713"/>
      </g>
     </g>
     <g id="text_9">
      <!-- $0$ -->
      <g transform="translate(35.6713534208 390.675855593)scale(0.12 -0.12)">
       <use transform="scale(0.996264009963)" xlink:href="#Nimbus_Sans_L_Regular-48"/>
      </g>
     </g>
    </g>
    <g id="ytick_2">
     <g id="line2d_17">
      <g>
       <use style="stroke:#000000;stroke-width:0.5;" x="46.3183479676" xlink:href="#m728421d6d4" y="346.668065016"/>
      </g>
     </g>
     <g id="line2d_18">
      <g>
       <use style="stroke:#000000;stroke-width:0.5;" x="277.91993898" xlink:href="#mcb0005524f" y="346.668065016"/>
      </g>
     </g>
     <g id="text_10">
      <!-- $5$ -->
      <g transform="translate(35.6713534208 349.653869895)scale(0.12 -0.12)">
       <use transform="scale(0.996264009963)" xlink:href="#Nimbus_Sans_L_Regular-53"/>
      </g>
     </g>
    </g>
    <g id="ytick_3">
     <g id="line2d_19">
      <g>
       <use style="stroke:#000000;stroke-width:0.5;" x="46.3183479676" xlink:href="#m728421d6d4" y="305.646079318"/>
      </g>
     </g>
     <g id="line2d_20">
      <g>
       <use style="stroke:#000000;stroke-width:0.5;" x="277.91993898" xlink:href="#mcb0005524f" y="305.646079318"/>
      </g>
     </g>
     <g id="text_11">
      <!-- $10$ -->
      <g transform="translate(29.0243588739 308.631884198)scale(0.12 -0.12)">
       <use transform="scale(0.996264009963)" xlink:href="#Nimbus_Sans_L_Regular-49"/>
       <use transform="translate(55.3916769633 0.0)scale(0.996264009963)" xlink:href="#Nimbus_Sans_L_Regular-48"/>
      </g>
     </g>
    </g>
    <g id="ytick_4">
     <g id="line2d_21">
      <g>
       <use style="stroke:#000000;stroke-width:0.5;" x="46.3183479676" xlink:href="#m728421d6d4" y="264.624093621"/>
      </g>
     </g>
     <g id="line2d_22">
      <g>
       <use style="stroke:#000000;stroke-width:0.5;" x="277.91993898" xlink:href="#mcb0005524f" y="264.624093621"/>
      </g>
     </g>
     <g id="text_12">
      <!-- $15$ -->
      <g transform="translate(29.0243588739 267.609898501)scale(0.12 -0.12)">
       <use transform="scale(0.996264009963)" xlink:href="#Nimbus_Sans_L_Regular-49"/>
       <use transform="translate(55.3916769633 0.0)scale(0.996264009963)" xlink:href="#Nimbus_Sans_L_Regular-53"/>
      </g>
     </g>
    </g>
    <g id="ytick_5">
     <g id="line2d_23">
      <g>
       <use style="stroke:#000000;stroke-width:0.5;" x="46.3183479676" xlink:href="#m728421d6d4" y="223.602107924"/>
      </g>
     </g>
     <g id="line2d_24">
      <g>
       <use style="stroke:#000000;stroke-width:0.5;" x="277.91993898" xlink:href="#mcb0005524f" y="223.602107924"/>
      </g>
     </g>
     <g id="text_13">
      <!-- $20$ -->
      <g transform="translate(29.0243588739 226.587912803)scale(0.12 -0.12)">
       <use transform="scale(0.996264009963)" xlink:href="#Nimbus_Sans_L_Regular-50"/>
       <use transform="translate(55.3916769633 0.0)scale(0.996264009963)" xlink:href="#Nimbus_Sans_L_Regular-48"/>
      </g>
     </g>
    </g>
    <g id="ytick_6">
     <g id="line2d_25">
      <g>
       <use style="stroke:#000000;stroke-width:0.5;" x="46.3183479676" xlink:href="#m728421d6d4" y="182.580122226"/>
      </g>
     </g>
     <g id="line2d_26">
      <g>
       <use style="stroke:#000000;stroke-width:0.5;" x="277.91993898" xlink:href="#mcb0005524f" y="182.580122226"/>
      </g>
     </g>
     <g id="text_14">
      <!-- $25$ -->
      <g transform="translate(29.0243588739 185.565927106)scale(0.12 -0.12)">
       <use transform="scale(0.996264009963)" xlink:href="#Nimbus_Sans_L_Regular-50"/>
       <use transform="translate(55.3916769633 0.0)scale(0.996264009963)" xlink:href="#Nimbus_Sans_L_Regular-53"/>
      </g>
     </g>
    </g>
    <g id="ytick_7">
     <g id="line2d_27">
      <g>
       <use style="stroke:#000000;stroke-width:0.5;" x="46.3183479676" xlink:href="#m728421d6d4" y="141.558136529"/>
      </g>
     </g>
     <g id="line2d_28">
      <g>
       <use style="stroke:#000000;stroke-width:0.5;" x="277.91993898" xlink:href="#mcb0005524f" y="141.558136529"/>
      </g>
     </g>
     <g id="text_15">
      <!-- $30$ -->
      <g transform="translate(29.0243588739 144.543941409)scale(0.12 -0.12)">
       <use transform="scale(0.996264009963)" xlink:href="#Nimbus_Sans_L_Regular-51"/>
       <use transform="translate(55.3916769633 0.0)scale(0.996264009963)" xlink:href="#Nimbus_Sans_L_Regular-48"/>
      </g>
     </g>
    </g>
    <g id="ytick_8">
     <g id="line2d_29">
      <g>
       <use style="stroke:#000000;stroke-width:0.5;" x="46.3183479676" xlink:href="#m728421d6d4" y="100.536150832"/>
      </g>
     </g>
     <g id="line2d_30">
      <g>
       <use style="stroke:#000000;stroke-width:0.5;" x="277.91993898" xlink:href="#mcb0005524f" y="100.536150832"/>
      </g>
     </g>
     <g id="text_16">
      <!-- $35$ -->
      <g transform="translate(29.0243588739 103.521955711)scale(0.12 -0.12)">
       <use transform="scale(0.996264009963)" xlink:href="#Nimbus_Sans_L_Regular-51"/>
       <use transform="translate(55.3916769633 0.0)scale(0.996264009963)" xlink:href="#Nimbus_Sans_L_Regular-53"/>
      </g>
     </g>
    </g>
    <g id="ytick_9">
     <g id="line2d_31">
      <g>
       <use style="stroke:#000000;stroke-width:0.5;" x="46.3183479676" xlink:href="#m728421d6d4" y="59.5141651343"/>
      </g>
     </g>
     <g id="line2d_32">
      <g>
       <use style="stroke:#000000;stroke-width:0.5;" x="277.91993898" xlink:href="#mcb0005524f" y="59.5141651343"/>
      </g>
     </g>
     <g id="text_17">
      <!-- $40$ -->
      <g transform="translate(29.0243588739 62.499970014)scale(0.12 -0.12)">
       <use transform="scale(0.996264009963)" xlink:href="#Nimbus_Sans_L_Regular-52"/>
       <use transform="translate(55.3916769633 0.0)scale(0.996264009963)" xlink:href="#Nimbus_Sans_L_Regular-48"/>
      </g>
     </g>
    </g>
    <g id="ytick_10">
     <g id="line2d_33">
      <g>
       <use style="stroke:#000000;stroke-width:0.5;" x="46.3183479676" xlink:href="#m728421d6d4" y="18.492179437"/>
      </g>
     </g>
     <g id="line2d_34">
      <g>
       <use style="stroke:#000000;stroke-width:0.5;" x="277.91993898" xlink:href="#mcb0005524f" y="18.492179437"/>
      </g>
     </g>
     <g id="text_18">
      <!-- $45$ -->
      <g transform="translate(29.0243588739 21.4779843166)scale(0.12 -0.12)">
       <use transform="scale(0.996264009963)" xlink:href="#Nimbus_Sans_L_Regular-52"/>
       <use transform="translate(55.3916769633 0.0)scale(0.996264009963)" xlink:href="#Nimbus_Sans_L_Regular-53"/>
      </g>
     </g>
    </g>
    <g id="text_19">
     <!-- Number of occurrences -->
     <defs>
      <path d="
M5.40625 73
L5.40625 -0.03125
L12.9062 -0.03125
L12.9062 7
C16.9062 0.890625 22.2031 -2 29.5 -2
C43.2969 -2 52.2969 9.25 52.2969 26.5938
C52.2969 43.5312 43.7031 54 29.9062 54
C22.7031 54 17.5938 51.2812 13.7031 45.3906
L13.7031 73
z

M28.2969 46.1875
C37.5938 46.1875 43.5938 38.125 43.5938 25.7031
C43.5938 13.8594 37.4062 5.8125 28.2969 5.8125
C19.5 5.8125 13.7031 13.7656 13.7031 26
C13.7031 38.2344 19.5 46.1875 28.2969 46.1875" id="Nimbus_Sans_L_Regular-98"/>
      <path d="
M64.5938 73
L55.7969 73
L55.7969 13.2969
L17.7031 73
L7.59375 73
L7.59375 -0.03125
L16.4062 -0.03125
L16.4062 59.1719
L54.0938 -0.03125
L64.5938 -0.03125
z
" id="Nimbus_Sans_L_Regular-78"/>
      <path d="
M7 52.4844
L7 0
L15.4062 0
L15.4062 32.9531
C15.4062 40.5781 20.9062 46.6875 27.7031 46.6875
C33.9062 46.6875 37.4062 42.875 37.4062 36.1562
L37.4062 0
L45.7969 0
L45.7969 32.9531
C45.7969 40.5781 51.2969 46.6875 58.0938 46.6875
C64.2031 46.6875 67.7969 42.7812 67.7969 36.1562
L67.7969 0
L76.2031 0
L76.2031 39.375
C76.2031 48.7812 70.7969 54 61 54
C54 54 49.7969 51.8906 44.9062 45.9844
C41.7969 51.5938 37.5938 54 30.7969 54
C23.7969 54 19.2031 51.3906 14.7031 45.0781
L14.7031 52.4844
z
" id="Nimbus_Sans_L_Regular-109"/>
      <path d="
M43.7969 37.9219
C43.7031 48.2031 36.9062 54 24.7969 54
C12.5938 54 4.70312 47.7188 4.70312 38.0625
C4.70312 29.8906 8.90625 26.0156 21.2969 23.0312
L29.0938 21.1406
C34.9062 19.7344 37.2031 17.6562 37.2031 13.875
C37.2031 9 32.2969 5.70312 25 5.70312
C20.5 5.70312 16.7031 7 14.5938 9.1875
C13.2969 10.6875 12.7031 12.1719 12.2031 15.8438
L3.40625 15.8438
C3.79688 3.76562 10.5938 -2 24.2969 -2
C37.5 -2 45.9062 4.45312 45.9062 14.5156
C45.9062 22.2812 41.5 26.5781 31.0938 29.0625
L23.0938 30.9531
C16.2969 32.5312 13.4062 34.7344 13.4062 38.4062
C13.4062 43.1875 17.7031 46.2812 24.5 46.2812
C31.2031 46.2812 34.7969 43.3906 35 37.9219
z
" id="Nimbus_Sans_L_Regular-115"/>
     </defs>
     <g transform="translate(21.4779843166 265.209519934)rotate(-90.0)scale(0.12 -0.12)">
      <use transform="scale(0.996264009963)" xlink:href="#Nimbus_Sans_L_Regular-78"/>
      <use transform="translate(71.9299848469 0.0)scale(0.996264009963)" xlink:href="#Nimbus_Sans_L_Regular-117"/>
      <use transform="translate(127.32166181 0.0)scale(0.996264009963)" xlink:href="#Nimbus_Sans_L_Regular-109"/>
      <use transform="translate(210.310092038 0.0)scale(0.996264009963)" xlink:href="#Nimbus_Sans_L_Regular-98"/>
      <use transform="translate(265.701769001 0.0)scale(0.996264009963)" xlink:href="#Nimbus_Sans_L_Regular-101"/>
      <use transform="translate(321.093445964 0.0)scale(0.996264009963)" xlink:href="#Nimbus_Sans_L_Regular-114"/>
      <use transform="translate(381.963845297 0.0)scale(0.996264009963)" xlink:href="#Nimbus_Sans_L_Regular-111"/>
      <use transform="translate(437.35552226 0.0)scale(0.996264009963)" xlink:href="#Nimbus_Sans_L_Regular-102"/>
      <use transform="translate(492.745861467 0.0)scale(0.996264009963)" xlink:href="#Nimbus_Sans_L_Regular-111"/>
      <use transform="translate(548.13753843 0.0)scale(0.996264009963)" xlink:href="#Nimbus_Sans_L_Regular-99"/>
      <use transform="translate(597.950738928 0.0)scale(0.996264009963)" xlink:href="#Nimbus_Sans_L_Regular-99"/>
      <use transform="translate(647.763939426 0.0)scale(0.996264009963)" xlink:href="#Nimbus_Sans_L_Regular-117"/>
      <use transform="translate(703.15561639 0.0)scale(0.996264009963)" xlink:href="#Nimbus_Sans_L_Regular-114"/>
      <use transform="translate(736.330846119 0.0)scale(0.996264009963)" xlink:href="#Nimbus_Sans_L_Regular-114"/>
      <use transform="translate(769.506075848 0.0)scale(0.996264009963)" xlink:href="#Nimbus_Sans_L_Regular-101"/>
      <use transform="translate(824.897752812 0.0)scale(0.996264009963)" xlink:href="#Nimbus_Sans_L_Regular-110"/>
      <use transform="translate(880.289429775 0.0)scale(0.996264009963)" xlink:href="#Nimbus_Sans_L_Regular-99"/>
      <use transform="translate(930.102630273 0.0)scale(0.996264009963)" xlink:href="#Nimbus_Sans_L_Regular-101"/>
      <use transform="translate(985.494307237 0.0)scale(0.996264009963)" xlink:href="#Nimbus_Sans_L_Regular-115"/>
     </g>
    </g>
   </g>
  </g>
  <g id="axes_2">
   <g id="patch_17">
    <path d="
M318.144 387.69
L549.746 387.69
L549.746 18.4922
L318.144 18.4922
z
" style="fill:#ffffff;"/>
   </g>
   <g id="patch_18">
    <path clip-path="url(#pd82c617e1c)" d="
M318.144 387.69
L351.23 387.69
L351.23 297.442
L318.144 297.442
z
" style="fill:#0000b2;fill-opacity:0.5;stroke:#000000;stroke-linejoin:miter;"/>
   </g>
   <g id="patch_19">
    <path clip-path="url(#pd82c617e1c)" d="
M351.23 387.69
L384.316 387.69
L384.316 84.1274
L351.23 84.1274
z
" style="fill:#0000b2;fill-opacity:0.5;stroke:#000000;stroke-linejoin:miter;"/>
   </g>
   <g id="patch_20">
    <path clip-path="url(#pd82c617e1c)" d="
M384.316 387.69
L417.402 387.69
L417.402 264.624
L384.316 264.624
z
" style="fill:#0000b2;fill-opacity:0.5;stroke:#000000;stroke-linejoin:miter;"/>
   </g>
   <g id="patch_21">
    <path clip-path="url(#pd82c617e1c)" d="
M417.402 387.69
L450.488 387.69
L450.488 363.077
L417.402 363.077
z
" style="fill:#0000b2;fill-opacity:0.5;stroke:#000000;stroke-linejoin:miter;"/>
   </g>
   <g id="patch_22">
    <path clip-path="url(#pd82c617e1c)" d="
M450.488 387.69
L483.574 387.69
L483.574 387.69
L450.488 387.69
z
" style="fill:#0000b2;fill-opacity:0.5;stroke:#000000;stroke-linejoin:miter;"/>
   </g>
   <g id="patch_23">
    <path clip-path="url(#pd82c617e1c)" d="
M483.574 387.69
L516.66 387.69
L516.66 387.69
L483.574 387.69
z
" style="fill:#0000b2;fill-opacity:0.5;stroke:#000000;stroke-linejoin:miter;"/>
   </g>
   <g id="patch_24">
    <path clip-path="url(#pd82c617e1c)" d="
M516.66 387.69
L549.746 387.69
L549.746 387.69
L516.66 387.69
z
" style="fill:#0000b2;fill-opacity:0.5;stroke:#000000;stroke-linejoin:miter;"/>
   </g>
   <g id="patch_25">
    <path clip-path="url(#pd82c617e1c)" d="
M318.144 387.69
L351.23 387.69
L351.23 387.69
L318.144 387.69
z
" style="fill:#ff0000;fill-opacity:0.5;stroke:#000000;stroke-linejoin:miter;"/>
   </g>
   <g id="patch_26">
    <path clip-path="url(#pd82c617e1c)" d="
M351.23 387.69
L384.316 387.69
L384.316 387.69
L351.23 387.69
z
" style="fill:#ff0000;fill-opacity:0.5;stroke:#000000;stroke-linejoin:miter;"/>
   </g>
   <g id="patch_27">
    <path clip-path="url(#pd82c617e1c)" d="
M384.316 387.69
L417.402 387.69
L417.402 371.281
L384.316 371.281
z
" style="fill:#ff0000;fill-opacity:0.5;stroke:#000000;stroke-linejoin:miter;"/>
   </g>
   <g id="patch_28">
    <path clip-path="url(#pd82c617e1c)" d="
M417.402 387.69
L450.488 387.69
L450.488 231.807
L417.402 231.807
z
" style="fill:#ff0000;fill-opacity:0.5;stroke:#000000;stroke-linejoin:miter;"/>
   </g>
   <g id="patch_29">
    <path clip-path="url(#pd82c617e1c)" d="
M450.488 387.69
L483.574 387.69
L483.574 116.945
L450.488 116.945
z
" style="fill:#ff0000;fill-opacity:0.5;stroke:#000000;stroke-linejoin:miter;"/>
   </g>
   <g id="patch_30">
    <path clip-path="url(#pd82c617e1c)" d="
M483.574 387.69
L516.66 387.69
L516.66 305.646
L483.574 305.646
z
" style="fill:#ff0000;fill-opacity:0.5;stroke:#000000;stroke-linejoin:miter;"/>
   </g>
   <g id="patch_31">
    <path clip-path="url(#pd82c617e1c)" d="
M516.66 387.69
L549.746 387.69
L549.746 371.281
L516.66 371.281
z
" style="fill:#ff0000;fill-opacity:0.5;stroke:#000000;stroke-linejoin:miter;"/>
   </g>
   <g id="patch_32">
    <path d="
M318.144 18.4922
L549.746 18.4922" style="fill:none;stroke:#000000;stroke-linecap:square;stroke-linejoin:miter;"/>
   </g>
   <g id="patch_33">
    <path d="
M549.746 387.69
L549.746 18.4922" style="fill:none;stroke:#000000;stroke-linecap:square;stroke-linejoin:miter;"/>
   </g>
   <g id="patch_34">
    <path d="
M318.144 387.69
L549.746 387.69" style="fill:none;stroke:#000000;stroke-linecap:square;stroke-linejoin:miter;"/>
   </g>
   <g id="patch_35">
    <path d="
M318.144 387.69
L318.144 18.4922" style="fill:none;stroke:#000000;stroke-linecap:square;stroke-linejoin:miter;"/>
   </g>
   <g id="matplotlib.axis_3">
    <g id="xtick_8">
     <g id="line2d_35">
      <g>
       <use style="stroke:#000000;stroke-width:0.5;" x="318.144419894" xlink:href="#m93b0483c22" y="387.690050713"/>
      </g>
     </g>
     <g id="line2d_36">
      <g>
       <use style="stroke:#000000;stroke-width:0.5;" x="318.144419894" xlink:href="#m741efc42ff" y="18.492179437"/>
      </g>
     </g>
     <g id="text_20">
      <!-- $985$ -->
      <defs>
       <path d="
M39.0938 37.4844
C46.4062 41.875 48.7969 45.4688 48.7969 52.1562
C48.7969 63.2188 40.0938 71 27.5 71
C15 71 6.20312 63.2188 6.20312 52.1562
C6.20312 45.5781 8.59375 41.9844 15.7969 37.4844
C7.70312 33.5938 3.70312 27.7188 3.70312 19.9375
C3.70312 6.96875 13.5 -2 27.5 -2
C41.5 -2 51.2969 6.96875 51.2969 19.8438
C51.2969 27.7188 47.2969 33.5938 39.0938 37.4844
M27.5 63.1875
C35 63.1875 39.7969 58.8125 39.7969 51.9531
C39.7969 45.375 34.9062 41 27.5 41
C20.0938 41 15.2031 45.375 15.2031 52.0469
C15.2031 58.8125 20.0938 63.1875 27.5 63.1875
M27.5 33.5781
C36.2969 33.5781 42.2969 28 42.2969 19.7344
C42.2969 11.3906 36.2969 5.8125 27.2969 5.8125
C18.7031 5.8125 12.7031 11.4844 12.7031 19.7344
C12.7031 28 18.7031 33.5781 27.5 33.5781" id="Nimbus_Sans_L_Regular-56"/>
       <path d="
M5.29688 16.625
C7 4.9375 14.5938 -2 25.4062 -2
C33.2031 -2 40.2969 1.78125 44.4062 8.0625
C48.9062 14.9375 50.9062 23.625 50.9062 36.4844
C50.9062 48.3594 49.0938 55.9375 44.9062 62.2188
C41 67.9219 34.7969 71 27 71
C13.5 71 3.79688 61.0781 3.79688 47.2969
C3.79688 34.2188 12.7969 25 25.5938 25
C32.2969 25 37.2031 27.4062 41.7969 32.9062
C41.7031 15.4844 36.0938 5.8125 26 5.8125
C19.7969 5.8125 15.5 9.75 14.0938 16.625
z

M26.9062 63.2969
C35.0938 63.2969 41.2969 56.5938 41.2969 47.5156
C41.2969 38.9219 35.2031 32.8125 26.5938 32.8125
C18.0938 32.8125 12.7969 38.625 12.7969 48
C12.7969 56.875 18.7969 63.2969 26.9062 63.2969" id="Nimbus_Sans_L_Regular-57"/>
      </defs>
      <g transform="translate(308.173928074 400.20803503)scale(0.12 -0.12)">
       <use transform="scale(0.996264009963)" xlink:href="#Nimbus_Sans_L_Regular-57"/>
       <use transform="translate(55.3916769633 0.0)scale(0.996264009963)" xlink:href="#Nimbus_Sans_L_Regular-56"/>
       <use transform="translate(110.783353927 0.0)scale(0.996264009963)" xlink:href="#Nimbus_Sans_L_Regular-53"/>
      </g>
     </g>
    </g>
    <g id="xtick_9">
     <g id="line2d_37">
      <g>
       <use style="stroke:#000000;stroke-width:0.5;" x="351.230361467" xlink:href="#m93b0483c22" y="387.690050713"/>
      </g>
     </g>
     <g id="line2d_38">
      <g>
       <use style="stroke:#000000;stroke-width:0.5;" x="351.230361467" xlink:href="#m741efc42ff" y="18.492179437"/>
      </g>
     </g>
     <g id="text_21">
      <!-- $990$ -->
      <g transform="translate(341.259869647 400.20803503)scale(0.12 -0.12)">
       <use transform="scale(0.996264009963)" xlink:href="#Nimbus_Sans_L_Regular-57"/>
       <use transform="translate(55.3916769633 0.0)scale(0.996264009963)" xlink:href="#Nimbus_Sans_L_Regular-57"/>
       <use transform="translate(110.783353927 0.0)scale(0.996264009963)" xlink:href="#Nimbus_Sans_L_Regular-48"/>
      </g>
     </g>
    </g>
    <g id="xtick_10">
     <g id="line2d_39">
      <g>
       <use style="stroke:#000000;stroke-width:0.5;" x="384.31630304" xlink:href="#m93b0483c22" y="387.690050713"/>
      </g>
     </g>
     <g id="line2d_40">
      <g>
       <use style="stroke:#000000;stroke-width:0.5;" x="384.31630304" xlink:href="#m741efc42ff" y="18.492179437"/>
      </g>
     </g>
     <g id="text_22">
      <!-- $995$ -->
      <g transform="translate(374.34581122 400.20803503)scale(0.12 -0.12)">
       <use transform="scale(0.996264009963)" xlink:href="#Nimbus_Sans_L_Regular-57"/>
       <use transform="translate(55.3916769633 0.0)scale(0.996264009963)" xlink:href="#Nimbus_Sans_L_Regular-57"/>
       <use transform="translate(110.783353927 0.0)scale(0.996264009963)" xlink:href="#Nimbus_Sans_L_Regular-53"/>
      </g>
     </g>
    </g>
    <g id="xtick_11">
     <g id="line2d_41">
      <g>
       <use style="stroke:#000000;stroke-width:0.5;" x="417.402244614" xlink:href="#m93b0483c22" y="387.690050713"/>
      </g>
     </g>
     <g id="line2d_42">
      <g>
       <use style="stroke:#000000;stroke-width:0.5;" x="417.402244614" xlink:href="#m741efc42ff" y="18.492179437"/>
      </g>
     </g>
     <g id="text_23">
      <!-- $1000$ -->
      <g transform="translate(404.10825552 400.20803503)scale(0.12 -0.12)">
       <use transform="scale(0.996264009963)" xlink:href="#Nimbus_Sans_L_Regular-49"/>
       <use transform="translate(55.3916769633 0.0)scale(0.996264009963)" xlink:href="#Nimbus_Sans_L_Regular-48"/>
       <use transform="translate(110.783353927 0.0)scale(0.996264009963)" xlink:href="#Nimbus_Sans_L_Regular-48"/>
       <use transform="translate(166.17503089 0.0)scale(0.996264009963)" xlink:href="#Nimbus_Sans_L_Regular-48"/>
      </g>
     </g>
    </g>
    <g id="xtick_12">
     <g id="line2d_43">
      <g>
       <use style="stroke:#000000;stroke-width:0.5;" x="450.488186187" xlink:href="#m93b0483c22" y="387.690050713"/>
      </g>
     </g>
     <g id="line2d_44">
      <g>
       <use style="stroke:#000000;stroke-width:0.5;" x="450.488186187" xlink:href="#m741efc42ff" y="18.492179437"/>
      </g>
     </g>
     <g id="text_24">
      <!-- $1005$ -->
      <g transform="translate(437.194197093 400.20803503)scale(0.12 -0.12)">
       <use transform="scale(0.996264009963)" xlink:href="#Nimbus_Sans_L_Regular-49"/>
       <use transform="translate(55.3916769633 0.0)scale(0.996264009963)" xlink:href="#Nimbus_Sans_L_Regular-48"/>
       <use transform="translate(110.783353927 0.0)scale(0.996264009963)" xlink:href="#Nimbus_Sans_L_Regular-48"/>
       <use transform="translate(166.17503089 0.0)scale(0.996264009963)" xlink:href="#Nimbus_Sans_L_Regular-53"/>
      </g>
     </g>
    </g>
    <g id="xtick_13">
     <g id="line2d_45">
      <g>
       <use style="stroke:#000000;stroke-width:0.5;" x="483.57412776" xlink:href="#m93b0483c22" y="387.690050713"/>
      </g>
     </g>
     <g id="line2d_46">
      <g>
       <use style="stroke:#000000;stroke-width:0.5;" x="483.57412776" xlink:href="#m741efc42ff" y="18.492179437"/>
      </g>
     </g>
     <g id="text_25">
      <!-- $1010$ -->
      <g transform="translate(470.280138666 400.20803503)scale(0.12 -0.12)">
       <use transform="scale(0.996264009963)" xlink:href="#Nimbus_Sans_L_Regular-49"/>
       <use transform="translate(55.3916769633 0.0)scale(0.996264009963)" xlink:href="#Nimbus_Sans_L_Regular-48"/>
       <use transform="translate(110.783353927 0.0)scale(0.996264009963)" xlink:href="#Nimbus_Sans_L_Regular-49"/>
       <use transform="translate(166.17503089 0.0)scale(0.996264009963)" xlink:href="#Nimbus_Sans_L_Regular-48"/>
      </g>
     </g>
    </g>
    <g id="xtick_14">
     <g id="line2d_47">
      <g>
       <use style="stroke:#000000;stroke-width:0.5;" x="516.660069333" xlink:href="#m93b0483c22" y="387.690050713"/>
      </g>
     </g>
     <g id="line2d_48">
      <g>
       <use style="stroke:#000000;stroke-width:0.5;" x="516.660069333" xlink:href="#m741efc42ff" y="18.492179437"/>
      </g>
     </g>
     <g id="text_26">
      <!-- $1015$ -->
      <g transform="translate(503.36608024 400.20803503)scale(0.12 -0.12)">
       <use transform="scale(0.996264009963)" xlink:href="#Nimbus_Sans_L_Regular-49"/>
       <use transform="translate(55.3916769633 0.0)scale(0.996264009963)" xlink:href="#Nimbus_Sans_L_Regular-48"/>
       <use transform="translate(110.783353927 0.0)scale(0.996264009963)" xlink:href="#Nimbus_Sans_L_Regular-49"/>
       <use transform="translate(166.17503089 0.0)scale(0.996264009963)" xlink:href="#Nimbus_Sans_L_Regular-53"/>
      </g>
     </g>
    </g>
    <g id="xtick_15">
     <g id="line2d_49">
      <g>
       <use style="stroke:#000000;stroke-width:0.5;" x="549.746010906" xlink:href="#m93b0483c22" y="387.690050713"/>
      </g>
     </g>
     <g id="line2d_50">
      <g>
       <use style="stroke:#000000;stroke-width:0.5;" x="549.746010906" xlink:href="#m741efc42ff" y="18.492179437"/>
      </g>
     </g>
     <g id="text_27">
      <!-- $1020$ -->
      <g transform="translate(536.452021813 400.20803503)scale(0.12 -0.12)">
       <use transform="scale(0.996264009963)" xlink:href="#Nimbus_Sans_L_Regular-49"/>
       <use transform="translate(55.3916769633 0.0)scale(0.996264009963)" xlink:href="#Nimbus_Sans_L_Regular-48"/>
       <use transform="translate(110.783353927 0.0)scale(0.996264009963)" xlink:href="#Nimbus_Sans_L_Regular-50"/>
       <use transform="translate(166.17503089 0.0)scale(0.996264009963)" xlink:href="#Nimbus_Sans_L_Regular-48"/>
      </g>
     </g>
    </g>
    <g id="text_28">
     <!-- Logic utilization (ALMs) -->
     <defs>
      <path d="
M53.5 5.20312
C52.5938 5 52.2031 5 51.7031 5
C48.7969 5 47.2031 6.48438 47.2031 9.07812
L47.2031 39.7656
C47.2031 49.0156 40.4062 54 27.5 54
C19.9062 54 13.5938 51.8125 10.0938 47.9062
C7.70312 45.2031 6.70312 42.2188 6.5 37.0312
L14.9062 37.0312
C15.5938 43.3906 19.4062 46.2812 27.2031 46.2812
C34.7031 46.2812 38.9062 43.4844 38.9062 38.5156
L38.9062 36.3281
C38.9062 32.8281 36.7969 31.3438 30.2031 30.5469
C18.4062 29.0625 16.5938 28.6562 13.4062 27.3594
C7.29688 24.875 4.20312 20.1875 4.20312 13.4219
C4.20312 3.96875 10.7969 -2 21.4062 -2
C28 -2 33.2969 0.296875 39.2031 5.70312
C39.7969 0.390625 42.4062 -2 47.7969 -2
C49.5 -2 50.7969 -1.8125 53.5 -1.09375
z

M38.9062 16.75
C38.9062 13.9531 38.0938 12.2656 35.5938 9.98438
C32.2031 6.89062 28.0938 5.3125 23.2031 5.3125
C16.7031 5.3125 12.9062 8.39062 12.9062 13.6562
C12.9062 19.1406 16.5938 21.9219 25.5 23.2188
C34.2969 24.4062 36.0938 24.8125 38.9062 26.0938
z
" id="Nimbus_Sans_L_Regular-97"/>
      <path d="
M47.4062 22
L54.9062 0
L65.2969 0
L39.7031 73
L27.7031 73
L1.70312 0
L11.5938 0
L19.2969 22
z

M44.7969 29.8125
L21.5938 29.8125
L33.5938 63
z
" id="Nimbus_Sans_L_Regular-65"/>
      <path d="
M15 52.4844
L6.70312 52.4844
L6.70312 0
L15 0
z

M15 73
L6.59375 73
L6.59375 62.4844
L15 62.4844
z
" id="Nimbus_Sans_L_Regular-105"/>
      <path d="
M17.2969 73
L8 73
L8 0
L53.2969 0
L53.2969 8.21875
L17.2969 8.21875
z
" id="Nimbus_Sans_L_Regular-76"/>
      <path d="
M25.4062 52.8125
L16.7969 52.8125
L16.7969 67
L8.5 67
L8.5 52.8125
L1.40625 52.8125
L1.40625 46
L8.5 46
L8.5 6.3125
C8.5 1 12.0938 -2 18.5938 -2
C20.5938 -2 22.5938 -1.8125 25.4062 -1.29688
L25.4062 5.71875
C24.2969 5.40625 23 5.3125 21.4062 5.3125
C17.7969 5.3125 16.7969 6.3125 16.7969 10.0156
L16.7969 46
L25.4062 46
z
" id="Nimbus_Sans_L_Regular-116"/>
      <path d="
M41.2031 52.2031
L41.2031 44.5938
C37 50.8125 31.9062 53.7188 25.2031 53.7188
C11.9062 53.7188 2.90625 42.0625 2.90625 25
C2.90625 16.375 5.20312 9.34375 9.5 4.3125
C13.4062 -0.109375 19 -2.70312 24.5 -2.70312
C31.0938 -2.70312 35.7031 0.09375 40.4062 6.70312
L40.4062 4.03125
C40.4062 -3 39.5 -7.26562 37.4062 -10.1406
C35.2031 -13.1875 30.9062 -14.9844 25.7969 -14.9844
C22 -14.9844 18.5938 -14 16.2969 -12.2344
C14.4062 -10.75 13.5938 -9.375 13.0938 -6.34375
L4.59375 -6.34375
C5.5 -16.1406 13.2031 -22 25.5 -22
C33.2969 -22 40 -19.4844 43.4062 -15.2969
C47.4062 -10.4844 48.9062 -3.89062 48.9062 8.40625
L48.9062 52.2031
z

M26.0938 46
C35.0938 46 40.4062 38.375 40.4062 25.2031
C40.4062 12.625 35 5 26.2031 5
C17.0938 5 11.5938 12.75 11.5938 25.5
C11.5938 38.1562 17.2031 46 26.0938 46" id="Nimbus_Sans_L_Regular-103"/>
     </defs>
     <g transform="translate(372.161690605 416.493625443)scale(0.12 -0.12)">
      <use transform="scale(0.996264009963)" xlink:href="#Nimbus_Sans_L_Regular-76"/>
      <use transform="translate(55.3916769633 0.0)scale(0.996264009963)" xlink:href="#Nimbus_Sans_L_Regular-111"/>
      <use transform="translate(110.783353927 0.0)scale(0.996264009963)" xlink:href="#Nimbus_Sans_L_Regular-103"/>
      <use transform="translate(166.17503089 0.0)scale(0.996264009963)" xlink:href="#Nimbus_Sans_L_Regular-105"/>
      <use transform="translate(188.291815239 0.0)scale(0.996264009963)" xlink:href="#Nimbus_Sans_L_Regular-99"/>
      <use transform="translate(265.80018534 0.0)scale(0.996264009963)" xlink:href="#Nimbus_Sans_L_Regular-117"/>
      <use transform="translate(321.191862303 0.0)scale(0.996264009963)" xlink:href="#Nimbus_Sans_L_Regular-116"/>
      <use transform="translate(348.887031907 0.0)scale(0.996264009963)" xlink:href="#Nimbus_Sans_L_Regular-105"/>
      <use transform="translate(371.003816255 0.0)scale(0.996264009963)" xlink:href="#Nimbus_Sans_L_Regular-108"/>
      <use transform="translate(393.120600604 0.0)scale(0.996264009963)" xlink:href="#Nimbus_Sans_L_Regular-105"/>
      <use transform="translate(415.237384953 0.0)scale(0.996264009963)" xlink:href="#Nimbus_Sans_L_Regular-122"/>
      <use transform="translate(465.050585451 0.0)scale(0.996264009963)" xlink:href="#Nimbus_Sans_L_Regular-97"/>
      <use transform="translate(520.442262414 0.0)scale(0.996264009963)" xlink:href="#Nimbus_Sans_L_Regular-116"/>
      <use transform="translate(548.137432018 0.0)scale(0.996264009963)" xlink:href="#Nimbus_Sans_L_Regular-105"/>
      <use transform="translate(570.254216366 0.0)scale(0.996264009963)" xlink:href="#Nimbus_Sans_L_Regular-111"/>
      <use transform="translate(625.64589333 0.0)scale(0.996264009963)" xlink:href="#Nimbus_Sans_L_Regular-110"/>
      <use transform="translate(708.732739896 0.0)scale(0.996264009963)" xlink:href="#Nimbus_Sans_L_Regular-40"/>
      <use transform="translate(741.907969626 0.0)scale(0.996264009963)" xlink:href="#Nimbus_Sans_L_Regular-65"/>
      <use transform="translate(808.358000759 0.0)scale(0.996264009963)" xlink:href="#Nimbus_Sans_L_Regular-76"/>
      <use transform="translate(863.749677722 0.0)scale(0.996264009963)" xlink:href="#Nimbus_Sans_L_Regular-77"/>
      <use transform="translate(946.73810795 0.0)scale(0.996264009963)" xlink:href="#Nimbus_Sans_L_Regular-115"/>
      <use transform="translate(996.551308448 0.0)scale(0.996264009963)" xlink:href="#Nimbus_Sans_L_Regular-41"/>
     </g>
    </g>
   </g>
   <g id="matplotlib.axis_4">
    <g id="ytick_11">
     <g id="line2d_51">
      <g>
       <use style="stroke:#000000;stroke-width:0.5;" x="318.144419894" xlink:href="#m728421d6d4" y="387.690050713"/>
      </g>
     </g>
     <g id="line2d_52">
      <g>
       <use style="stroke:#000000;stroke-width:0.5;" x="549.746010906" xlink:href="#mcb0005524f" y="387.690050713"/>
      </g>
     </g>
     <g id="text_29">
      <!-- $0$ -->
      <g transform="translate(307.497425347 390.675855593)scale(0.12 -0.12)">
       <use transform="scale(0.996264009963)" xlink:href="#Nimbus_Sans_L_Regular-48"/>
      </g>
     </g>
    </g>
    <g id="ytick_12">
     <g id="line2d_53">
      <g>
       <use style="stroke:#000000;stroke-width:0.5;" x="318.144419894" xlink:href="#m728421d6d4" y="346.668065016"/>
      </g>
     </g>
     <g id="line2d_54">
      <g>
       <use style="stroke:#000000;stroke-width:0.5;" x="549.746010906" xlink:href="#mcb0005524f" y="346.668065016"/>
      </g>
     </g>
     <g id="text_30">
      <!-- $5$ -->
      <g transform="translate(307.497425347 349.653869895)scale(0.12 -0.12)">
       <use transform="scale(0.996264009963)" xlink:href="#Nimbus_Sans_L_Regular-53"/>
      </g>
     </g>
    </g>
    <g id="ytick_13">
     <g id="line2d_55">
      <g>
       <use style="stroke:#000000;stroke-width:0.5;" x="318.144419894" xlink:href="#m728421d6d4" y="305.646079318"/>
      </g>
     </g>
     <g id="line2d_56">
      <g>
       <use style="stroke:#000000;stroke-width:0.5;" x="549.746010906" xlink:href="#mcb0005524f" y="305.646079318"/>
      </g>
     </g>
     <g id="text_31">
      <!-- $10$ -->
      <g transform="translate(300.8504308 308.631884198)scale(0.12 -0.12)">
       <use transform="scale(0.996264009963)" xlink:href="#Nimbus_Sans_L_Regular-49"/>
       <use transform="translate(55.3916769633 0.0)scale(0.996264009963)" xlink:href="#Nimbus_Sans_L_Regular-48"/>
      </g>
     </g>
    </g>
    <g id="ytick_14">
     <g id="line2d_57">
      <g>
       <use style="stroke:#000000;stroke-width:0.5;" x="318.144419894" xlink:href="#m728421d6d4" y="264.624093621"/>
      </g>
     </g>
     <g id="line2d_58">
      <g>
       <use style="stroke:#000000;stroke-width:0.5;" x="549.746010906" xlink:href="#mcb0005524f" y="264.624093621"/>
      </g>
     </g>
     <g id="text_32">
      <!-- $15$ -->
      <g transform="translate(300.8504308 267.609898501)scale(0.12 -0.12)">
       <use transform="scale(0.996264009963)" xlink:href="#Nimbus_Sans_L_Regular-49"/>
       <use transform="translate(55.3916769633 0.0)scale(0.996264009963)" xlink:href="#Nimbus_Sans_L_Regular-53"/>
      </g>
     </g>
    </g>
    <g id="ytick_15">
     <g id="line2d_59">
      <g>
       <use style="stroke:#000000;stroke-width:0.5;" x="318.144419894" xlink:href="#m728421d6d4" y="223.602107924"/>
      </g>
     </g>
     <g id="line2d_60">
      <g>
       <use style="stroke:#000000;stroke-width:0.5;" x="549.746010906" xlink:href="#mcb0005524f" y="223.602107924"/>
      </g>
     </g>
     <g id="text_33">
      <!-- $20$ -->
      <g transform="translate(300.8504308 226.587912803)scale(0.12 -0.12)">
       <use transform="scale(0.996264009963)" xlink:href="#Nimbus_Sans_L_Regular-50"/>
       <use transform="translate(55.3916769633 0.0)scale(0.996264009963)" xlink:href="#Nimbus_Sans_L_Regular-48"/>
      </g>
     </g>
    </g>
    <g id="ytick_16">
     <g id="line2d_61">
      <g>
       <use style="stroke:#000000;stroke-width:0.5;" x="318.144419894" xlink:href="#m728421d6d4" y="182.580122226"/>
      </g>
     </g>
     <g id="line2d_62">
      <g>
       <use style="stroke:#000000;stroke-width:0.5;" x="549.746010906" xlink:href="#mcb0005524f" y="182.580122226"/>
      </g>
     </g>
     <g id="text_34">
      <!-- $25$ -->
      <g transform="translate(300.8504308 185.565927106)scale(0.12 -0.12)">
       <use transform="scale(0.996264009963)" xlink:href="#Nimbus_Sans_L_Regular-50"/>
       <use transform="translate(55.3916769633 0.0)scale(0.996264009963)" xlink:href="#Nimbus_Sans_L_Regular-53"/>
      </g>
     </g>
    </g>
    <g id="ytick_17">
     <g id="line2d_63">
      <g>
       <use style="stroke:#000000;stroke-width:0.5;" x="318.144419894" xlink:href="#m728421d6d4" y="141.558136529"/>
      </g>
     </g>
     <g id="line2d_64">
      <g>
       <use style="stroke:#000000;stroke-width:0.5;" x="549.746010906" xlink:href="#mcb0005524f" y="141.558136529"/>
      </g>
     </g>
     <g id="text_35">
      <!-- $30$ -->
      <g transform="translate(300.8504308 144.543941409)scale(0.12 -0.12)">
       <use transform="scale(0.996264009963)" xlink:href="#Nimbus_Sans_L_Regular-51"/>
       <use transform="translate(55.3916769633 0.0)scale(0.996264009963)" xlink:href="#Nimbus_Sans_L_Regular-48"/>
      </g>
     </g>
    </g>
    <g id="ytick_18">
     <g id="line2d_65">
      <g>
       <use style="stroke:#000000;stroke-width:0.5;" x="318.144419894" xlink:href="#m728421d6d4" y="100.536150832"/>
      </g>
     </g>
     <g id="line2d_66">
      <g>
       <use style="stroke:#000000;stroke-width:0.5;" x="549.746010906" xlink:href="#mcb0005524f" y="100.536150832"/>
      </g>
     </g>
     <g id="text_36">
      <!-- $35$ -->
      <g transform="translate(300.8504308 103.521955711)scale(0.12 -0.12)">
       <use transform="scale(0.996264009963)" xlink:href="#Nimbus_Sans_L_Regular-51"/>
       <use transform="translate(55.3916769633 0.0)scale(0.996264009963)" xlink:href="#Nimbus_Sans_L_Regular-53"/>
      </g>
     </g>
    </g>
    <g id="ytick_19">
     <g id="line2d_67">
      <g>
       <use style="stroke:#000000;stroke-width:0.5;" x="318.144419894" xlink:href="#m728421d6d4" y="59.5141651343"/>
      </g>
     </g>
     <g id="line2d_68">
      <g>
       <use style="stroke:#000000;stroke-width:0.5;" x="549.746010906" xlink:href="#mcb0005524f" y="59.5141651343"/>
      </g>
     </g>
     <g id="text_37">
      <!-- $40$ -->
      <g transform="translate(300.8504308 62.499970014)scale(0.12 -0.12)">
       <use transform="scale(0.996264009963)" xlink:href="#Nimbus_Sans_L_Regular-52"/>
       <use transform="translate(55.3916769633 0.0)scale(0.996264009963)" xlink:href="#Nimbus_Sans_L_Regular-48"/>
      </g>
     </g>
    </g>
    <g id="ytick_20">
     <g id="line2d_69">
      <g>
       <use style="stroke:#000000;stroke-width:0.5;" x="318.144419894" xlink:href="#m728421d6d4" y="18.492179437"/>
      </g>
     </g>
     <g id="line2d_70">
      <g>
       <use style="stroke:#000000;stroke-width:0.5;" x="549.746010906" xlink:href="#mcb0005524f" y="18.492179437"/>
      </g>
     </g>
     <g id="text_38">
      <!-- $45$ -->
      <g transform="translate(300.8504308 21.4779843166)scale(0.12 -0.12)">
       <use transform="scale(0.996264009963)" xlink:href="#Nimbus_Sans_L_Regular-52"/>
       <use transform="translate(55.3916769633 0.0)scale(0.996264009963)" xlink:href="#Nimbus_Sans_L_Regular-53"/>
      </g>
     </g>
    </g>
   </g>
   <g id="legend_1">
    <g id="patch_36">
     <path d="
M475.419 58.5768
L544.246 58.5768
L544.246 23.9922
L475.419 23.9922
z
" style="fill:#ffffff;stroke:#000000;stroke-linejoin:miter;"/>
    </g>
    <g id="patch_37">
     <path d="
M479.819 36.2003
L501.819 36.2003
L501.819 28.5003
L479.819 28.5003
z
" style="fill:#0000b2;fill-opacity:0.5;stroke:#000000;stroke-linejoin:miter;"/>
    </g>
    <g id="text_39">
     <!-- BSV -->
     <defs>
      <path d="
M39.2031 0
L64.5 73
L54.5938 73
L34.4062 11.2188
L13 73
L3 73
L29.2031 0
z
" id="Nimbus_Sans_L_Regular-86"/>
      <path d="
M59.5938 52.1094
C59.5 66.4844 49.7031 74.8125 32.9062 74.8125
C16.9062 74.8125 7 66.5625 7 53.2812
C7 44.3281 11.7031 38.7031 21.2969 36.1875
L39.4062 31.3594
C48.5938 28.9375 52.7969 25.2188 52.7969 19.4844
C52.7969 15.5469 50.7031 11.5312 47.5938 9.32812
C44.7031 7.3125 40.0938 6.20312 34.2031 6.20312
C26.2969 6.20312 20.9062 8.125 17.4062 12.3438
C14.7031 15.5625 13.5 19.0938 13.5938 23.6094
L4.79688 23.6094
C4.90625 16.8906 6.20312 12.4688 9.09375 8.4375
C14.0938 1.60938 22.5 -2 33.5938 -2
C42.2969 -2 49.4062 0.015625 54.0938 3.625
C59 7.54688 62.0938 14.0781 62.0938 20.4219
C62.0938 29.4688 56.5 36.1094 46.5938 38.8281
L28.2969 43.7656
C19.5 46.1719 16.2969 48.9844 16.2969 54.625
C16.2969 62.0625 22.7969 67 32.5938 67
C44.2031 67 50.7031 61.6719 50.7969 52.1094
z
" id="Nimbus_Sans_L_Regular-83"/>
      <path d="
M7.90625 0
L40.7969 0
C47.7031 0 52.7969 1.89062 56.7031 6.0625
C60.2969 9.82812 62.2969 14.9844 62.2969 20.6562
C62.2969 29.3906 58.2969 34.6406 49 38.2188
C55.5938 41.3594 59.0938 46.8125 59.0938 54.2969
C59.0938 59.6406 57.0938 64.4062 53.2969 67.8438
C49.5 71.375 44.5 73 37.5 73
L7.90625 73
z

M17.2031 41.2188
L17.2031 64.7812
L35.2031 64.7812
C40.4062 64.7812 43.2969 64.0625 45.7969 62.1406
C48.4062 60.1094 49.7969 57.0625 49.7969 52.9844
C49.7969 49.0312 48.4062 45.8906 45.7969 43.8438
C43.2969 41.9219 40.4062 41.2188 35.2031 41.2188
z

M17.2031 8.21875
L17.2031 33
L39.9062 33
C44.4062 33 47.4062 31.9062 49.5938 29.5469
C51.7969 27.2656 53 24.1094 53 20.5625
C53 17.1094 51.7969 13.9531 49.5938 11.6719
C47.4062 9.29688 44.4062 8.21875 39.9062 8.21875
z
" id="Nimbus_Sans_L_Regular-66"/>
     </defs>
     <g transform="translate(510.618866482 36.2003317272)scale(0.11 -0.11)">
      <use transform="scale(0.996264009963)" xlink:href="#Nimbus_Sans_L_Regular-66"/>
      <use transform="translate(66.4500311333 0.0)scale(0.996264009963)" xlink:href="#Nimbus_Sans_L_Regular-83"/>
      <use transform="translate(132.900062267 0.0)scale(0.996264009963)" xlink:href="#Nimbus_Sans_L_Regular-86"/>
     </g>
    </g>
    <g id="patch_38">
     <path d="
M479.819 51.8427
L501.819 51.8427
L501.819 44.1427
L479.819 44.1427
z
" style="fill:#ff0000;fill-opacity:0.5;stroke:#000000;stroke-linejoin:miter;"/>
    </g>
    <g id="text_40">
     <!-- VHDL -->
     <defs>
      <path d="
M8.90625 0
L37 0
C55.4062 0 66.7031 13.8281 66.7031 36.5469
C66.7031 59.1719 55.5 73 37 73
L8.90625 73
z

M18.2031 8.21875
L18.2031 64.7812
L35.4062 64.7812
C49.7969 64.7812 57.4062 55.0625 57.4062 36.4531
C57.4062 18.0312 49.7969 8.21875 35.4062 8.21875
z
" id="Nimbus_Sans_L_Regular-68"/>
     </defs>
     <g transform="translate(510.618866482 51.8426568946)scale(0.11 -0.11)">
      <use transform="scale(0.996264009963)" xlink:href="#Nimbus_Sans_L_Regular-86"/>
      <use transform="translate(66.4500311333 0.0)scale(0.996264009963)" xlink:href="#Nimbus_Sans_L_Regular-72"/>
      <use transform="translate(138.38001598 0.0)scale(0.996264009963)" xlink:href="#Nimbus_Sans_L_Regular-68"/>
      <use transform="translate(210.310000827 0.0)scale(0.996264009963)" xlink:href="#Nimbus_Sans_L_Regular-76"/>
     </g>
    </g>
   </g>
  </g>
 </g>
 <defs>
  <clipPath id="pe5d10dc8f9">
   <rect height="369.197871276" width="231.601591012" x="46.3183479676" y="18.492179437"/>
  </clipPath>
  <clipPath id="pd82c617e1c">
   <rect height="369.197871276" width="231.601591012" x="318.144419894" y="18.492179437"/>
  </clipPath>
 </defs>
</svg>
